<svg width="31" height="30" viewBox="0 0 31 30" fill="none" xmlns="http://www.w3.org/2000/svg">
<path d="M4 22.25C4 20.7913 4.57946 19.3924 5.61091 18.3609C6.64236 17.3295 8.04131 16.75 9.5 16.75H20.5C21.9587 16.75 23.3576 17.3295 24.3891 18.3609C25.4205 19.3924 26 20.7913 26 22.25C26 22.9793 25.7103 23.6788 25.1945 24.1945C24.6788 24.7103 23.9793 25 23.25 25H6.75C6.02065 25 5.32118 24.7103 4.80546 24.1945C4.28973 23.6788 4 22.9793 4 22.25Z" stroke="#939393" stroke-width="2.5" stroke-linejoin="round"/>
<path d="M15 11.25C17.2782 11.25 19.125 9.40317 19.125 7.125C19.125 4.84683 17.2782 3 15 3C12.7218 3 10.875 4.84683 10.875 7.125C10.875 9.40317 12.7218 11.25 15 11.25Z" stroke="#939393" stroke-width="2.5"/>
</svg>
