<svg width="30" height="30" viewBox="0 0 30 30" fill="none" xmlns="http://www.w3.org/2000/svg">
<g clip-path="url(#clip0_69_356)">
<path d="M22.6389 20.75C22.9221 20.7503 23.1945 20.8601 23.4004 21.057C23.6063 21.2538 23.7303 21.5228 23.7469 21.8091C23.7635 22.0953 23.6715 22.3772 23.4897 22.5971C23.3079 22.8169 23.0501 22.9583 22.7689 22.9921L22.6389 23H4.86111C4.57791 22.9997 4.30552 22.8899 4.09959 22.693C3.89366 22.4962 3.76974 22.2272 3.75314 21.9409C3.73655 21.6547 3.82853 21.3728 4.01029 21.1529C4.19206 20.9331 4.44989 20.7917 4.73111 20.7579L4.86111 20.75H22.6389ZM22.6389 12.875C22.9336 12.875 23.2162 12.9935 23.4246 13.2045C23.6329 13.4155 23.75 13.7016 23.75 14C23.75 14.2984 23.6329 14.5845 23.4246 14.7955C23.2162 15.0065 22.9336 15.125 22.6389 15.125H4.86111C4.56643 15.125 4.28381 15.0065 4.07544 14.7955C3.86706 14.5845 3.75 14.2984 3.75 14C3.75 13.7016 3.86706 13.4155 4.07544 13.2045C4.28381 12.9935 4.56643 12.875 4.86111 12.875H22.6389ZM22.6389 5C22.9336 5 23.2162 5.11853 23.4246 5.32951C23.6329 5.54048 23.75 5.82663 23.75 6.125C23.75 6.42337 23.6329 6.70952 23.4246 6.92049C23.2162 7.13147 22.9336 7.25 22.6389 7.25H4.86111C4.56643 7.25 4.28381 7.13147 4.07544 6.92049C3.86706 6.70952 3.75 6.42337 3.75 6.125C3.75 5.82663 3.86706 5.54048 4.07544 5.32951C4.28381 5.11853 4.56643 5 4.86111 5H22.6389Z" fill="#939393"/>
</g>
<defs>
<clipPath id="clip0_69_356">
<rect width="30" height="30" fill="white"/>
</clipPath>
</defs>
</svg>
