<svg width="31" height="30" viewBox="0 0 31 30" fill="none" xmlns="http://www.w3.org/2000/svg">
<path d="M13.3808 3.99738C13.5717 3.55428 13.8992 3.17481 14.3213 2.90762C14.7433 2.64043 15.2407 2.49768 15.7498 2.49768C16.2588 2.49768 16.7562 2.64043 17.1783 2.90762C17.6003 3.17481 17.9278 3.55428 18.1187 3.99738C20.0082 4.48534 21.6749 5.54228 22.8627 7.00586C24.0506 8.46944 24.694 10.2587 24.6941 12.0989V17.7347L27.0349 21.032C27.1633 21.2127 27.237 21.4227 27.2483 21.6397C27.2595 21.8567 27.2078 22.0724 27.0986 22.264C26.9895 22.4555 26.827 22.6156 26.6286 22.7273C26.4301 22.8389 26.2031 22.8978 25.9718 22.8978H20.1772C20.0233 23.8974 19.4911 24.8115 18.678 25.4726C17.8649 26.1338 16.8253 26.4977 15.7498 26.4977C14.6742 26.4977 13.6346 26.1338 12.8215 25.4726C12.0084 24.8115 11.4762 23.8974 11.3223 22.8978H5.5277C5.29638 22.8978 5.06938 22.8389 4.87093 22.7273C4.67247 22.6156 4.51002 22.4555 4.40088 22.264C4.29175 22.0724 4.24004 21.8567 4.25126 21.6397C4.26248 21.4227 4.33622 21.2127 4.46461 21.032L6.80546 17.7347V12.0989C6.80546 8.23053 9.59097 4.97167 13.3808 3.99738ZM13.943 22.8978C14.075 23.2489 14.3197 23.553 14.6434 23.7681C14.9671 23.9831 15.3539 24.0986 15.7504 24.0986C16.1469 24.0986 16.5337 23.9831 16.8574 23.7681C17.1811 23.553 17.4258 23.2489 17.5578 22.8978H13.9417H13.943ZM15.7498 6.09955C14.0553 6.09955 12.4303 6.73163 11.2322 7.85673C10.0341 8.98183 9.36097 10.5078 9.36097 12.0989V18.0983C9.36103 18.3353 9.28633 18.567 9.14631 18.7642L7.91583 20.498H23.5824L22.3519 18.7642C22.2124 18.5669 22.1381 18.3352 22.1385 18.0983V12.0989C22.1385 10.5078 21.4654 8.98183 20.2673 7.85673C19.0692 6.73163 17.4442 6.09955 15.7498 6.09955Z" fill="#939393"/>
</svg>
