<svg width="31" height="30" viewBox="0 0 31 30" fill="none" xmlns="http://www.w3.org/2000/svg">
<path d="M10 6.31818C10 4.90771 10.5795 3.55501 11.6109 2.55766C12.6424 1.56031 14.0413 1 15.5 1C16.9587 1 18.3576 1.56031 19.3891 2.55766C20.4205 3.55501 21 4.90771 21 6.31818V8.09091H23.5C25.1569 8.09091 26.5 9.43406 26.5 11.0909V24C26.5 25.6569 25.1569 27 23.5 27H7.5C5.84315 27 4.5 25.6569 4.5 24V11.0909C4.5 9.43405 5.84315 8.09091 7.5 8.09091H10V6.31818ZM10 10.4545H6.94444V24.6364H24.0556V10.4545H21V14H18.5556V10.4545H12.4444V14H10V10.4545ZM18.5556 8.09091V6.31818C18.5556 5.53459 18.2336 4.78309 17.6606 4.229C17.0876 3.67492 16.3104 3.36364 15.5 3.36364C14.6896 3.36364 13.9124 3.67492 13.3394 4.229C12.7664 4.78309 12.4444 5.53459 12.4444 6.31818V8.09091H18.5556Z" fill="#939393"/>
</svg>
