<svg width="31" height="30" viewBox="0 0 31 30" fill="none" xmlns="http://www.w3.org/2000/svg">
<path d="M28 6.25V8.75H24.25V12.5H21.75V8.75H18V6.25H21.75V2.5H24.25V6.25H28ZM24.25 23.75H6.75V6.25H14.25V3.75H6.75C6.08757 3.75198 5.45283 4.01601 4.98442 4.48442C4.51601 4.95283 4.25198 5.58757 4.25 6.25V23.75C4.25198 24.4124 4.51601 25.0472 4.98442 25.5156C5.45283 25.984 6.08757 26.248 6.75 26.25H24.25C24.9124 26.248 25.5472 25.984 26.0156 25.5156C26.484 25.0472 26.748 24.4124 26.75 23.75V16.25H24.25V23.75Z" fill="#A3651B"/>
</svg>
