<svg width="30" height="30" viewBox="0 0 30 30" fill="none" xmlns="http://www.w3.org/2000/svg">
<path d="M24.6935 22.9925L20.1596 18.4586C21.2511 17.0054 21.8404 15.2367 21.8384 13.4192C21.8384 8.77688 18.0615 5 13.4192 5C8.77688 5 5 8.77688 5 13.4192C5 18.0615 8.77688 21.8384 13.4192 21.8384C15.2367 21.8404 17.0054 21.2511 18.4586 20.1596L22.9925 24.6935C23.222 24.8986 23.5213 25.0081 23.829 24.9995C24.1367 24.9909 24.4295 24.8648 24.6472 24.6472C24.8648 24.4295 24.9909 24.1367 24.9995 23.829C25.0081 23.5213 24.8986 23.222 24.6935 22.9925ZM7.40549 13.4192C7.40549 12.2298 7.75818 11.0671 8.41898 10.0782C9.07977 9.08921 10.019 8.31842 11.1179 7.86325C12.2167 7.40809 13.4259 7.289 14.5924 7.52104C15.759 7.75308 16.8305 8.32583 17.6715 9.16686C18.5126 10.0079 19.0853 11.0794 19.3174 12.246C19.5494 13.4125 19.4303 14.6217 18.9751 15.7205C18.52 16.8194 17.7492 17.7586 16.7602 18.4194C15.7713 19.0802 14.6086 19.4329 13.4192 19.4329C11.8249 19.431 10.2964 18.7968 9.16897 17.6694C8.0416 16.5421 7.4074 15.0135 7.40549 13.4192Z" fill="#939393"/>
</svg>
