<svg width="337" height="95" viewBox="0 0 337 95" fill="none" xmlns="http://www.w3.org/2000/svg">
<path d="M0.76345 6.73972C3.74473 7.44581 6.41218 7.99499 8.76582 8.38727C11.1979 8.70108 13.2377 8.93645 14.8853 9.09336C16.8467 9.32872 18.5727 9.40718 20.0633 9.32872C21.9462 9.25027 24.2998 8.97568 27.1242 8.50495C29.9486 8.03422 32.9299 7.56349 36.068 7.09276C39.2062 6.62204 42.3052 6.22976 45.3649 5.91594C48.4246 5.60213 51.0921 5.5629 53.3673 5.79826C55.6425 6.03363 58.0353 6.58281 60.5459 7.44581C63.0564 8.23036 65.4101 9.32872 67.6068 10.7409C69.8035 12.0746 71.6864 13.7222 73.2555 15.6835C74.9031 17.6449 75.923 19.9201 76.3153 22.5091C76.7075 25.0196 76.4722 27.7263 75.6092 30.6292C74.7462 33.4535 73.3732 36.2387 71.4903 38.9846C69.6074 41.652 67.2538 44.1234 64.4294 46.3985C61.605 48.6737 58.4668 50.5174 55.0148 51.9296C52.2689 52.9495 49.2876 53.734 46.071 54.2832C43.3251 54.754 40.1085 55.0678 36.4211 55.2247C32.8122 55.3031 28.9679 54.9109 24.8883 54.0479C24.3391 56.323 24.0252 58.4413 23.9468 60.4027C23.9468 62.2856 24.0252 63.9724 24.1822 65.463C24.4175 67.189 24.7313 68.7581 25.1236 70.1703C25.5943 71.5825 26.1828 73.23 26.8888 75.1129C27.5165 76.682 28.2226 78.6042 29.0071 80.8794C29.8701 83.0761 30.89 85.5474 32.0669 88.2933C30.6547 88.2933 29.2817 88.3325 27.948 88.411C26.6143 88.411 25.3982 88.4502 24.2998 88.5287C23.0446 88.6071 21.8677 88.6856 20.7694 88.764C19.5141 88.8425 18.1019 88.9994 16.5328 89.2348C15.1991 89.3917 13.5123 89.627 11.4725 89.9409C9.51114 90.2547 7.27518 90.647 4.76464 91.1177C6.41218 88.764 7.70669 86.6065 8.64814 84.6452C9.66805 82.6054 10.4134 80.8401 10.8841 79.3495C11.4333 77.6235 11.7863 76.0544 11.9432 74.6422C12.0217 73.4654 12.0217 71.3863 11.9432 68.4051C11.9432 65.4238 11.904 61.9718 11.8256 58.0491C11.7471 54.1263 11.6294 50.0075 11.4725 45.6924C11.3156 41.3774 11.1195 37.337 10.8841 33.5712C10.6487 29.7269 10.3741 26.4318 10.0603 23.6859C9.82496 20.94 9.5896 19.1356 9.35423 18.2726C9.04041 17.2526 8.49123 16.1543 7.70669 14.9775C7.07905 13.9575 6.17682 12.7807 5 11.447C3.90164 10.0348 2.48945 8.46572 0.76345 6.73972ZM25.1236 29.9231C25.0452 30.7076 25.0059 31.5314 25.0059 32.3944C25.0059 34.0419 25.1236 36.1602 25.359 38.7492C25.9082 40.0829 26.575 41.1813 27.3596 42.0443C28.2226 42.9073 29.1248 43.5742 30.0663 44.0449C31.0862 44.5156 32.1061 44.8294 33.126 44.9864C34.1459 45.1433 35.1658 45.2217 36.1857 45.2217C38.5394 45.1433 41.0107 44.5941 43.5997 43.5742C47.0517 42.0835 49.4838 39.9653 50.896 37.2193C52.3081 34.4734 53.0535 31.6491 53.1319 28.7462C53.2104 25.8434 52.7004 23.176 51.6021 20.7439C50.5821 18.3118 49.3269 16.6642 47.8362 15.8012C46.581 15.252 44.9726 15.0167 43.0113 15.0951C41.2853 15.1736 39.1278 15.6051 36.5388 16.3896C33.9498 17.1742 30.7723 18.5864 27.0065 20.6262C26.6143 22.0384 26.3004 23.2936 26.0651 24.392C25.8297 25.4904 25.6336 26.4711 25.4767 27.3341C25.3198 28.2755 25.2021 29.1385 25.1236 29.9231ZM103.971 72.0532C106.167 72.0532 108.207 71.8178 110.09 71.3471C111.659 70.9548 113.15 70.3272 114.562 69.4642C116.053 68.5227 117.033 67.1498 117.504 65.3453C119.073 65.6592 120.407 65.9337 121.505 66.1691C122.604 66.326 123.545 66.4829 124.33 66.6398C125.193 66.8752 125.938 67.0321 126.565 67.1106C127.193 67.2675 127.938 67.4244 128.801 67.5813C129.586 67.7382 130.527 67.9343 131.626 68.1697C132.803 68.3266 134.176 68.562 135.745 68.8758C134.568 68.7189 133.352 68.8366 132.097 69.2288C130.92 69.6211 129.782 70.0526 128.684 70.5233C127.428 71.0725 126.252 71.7394 125.153 72.5239C124.447 72.9947 123.623 73.7008 122.682 74.6422C121.819 75.5837 120.564 76.4859 118.916 77.3489C117.269 78.2119 115.072 78.9572 112.326 79.5849C109.658 80.134 106.206 80.3302 101.97 80.1733C96.8704 80.0164 92.5946 79.1141 89.1426 77.4666C85.6906 75.7406 82.9055 73.6615 80.7872 71.2294C78.6689 68.7189 77.139 66.0122 76.1976 63.1094C75.2561 60.2066 74.7462 57.4999 74.6677 54.9893C74.5893 52.4788 75.3346 49.8505 76.9037 47.1046C78.4728 44.3587 80.6695 41.8482 83.4939 39.573C86.3967 37.2978 89.8879 35.4541 93.9676 34.0419C98.0472 32.5513 102.519 31.806 107.383 31.806C110.208 31.806 112.797 32.159 115.15 32.8651C117.582 33.4927 119.779 34.3558 121.741 35.4541C123.78 36.5525 125.546 37.8078 127.036 39.2199C128.527 40.5537 129.782 41.9266 130.802 43.3388C131.822 44.8294 132.685 46.3985 133.391 48.0461C134.019 49.4583 134.529 51.0666 134.921 52.871C135.313 54.6755 135.431 56.5192 135.274 58.4021C129.311 58.559 124.486 58.6767 120.799 58.7551C117.19 58.8336 114.366 58.8728 112.326 58.8728H107.03H103.029C101.617 58.8728 99.7732 58.9121 97.498 58.9905C95.2228 59.069 92.4377 59.1866 89.1426 59.3436C89.5349 62.4817 90.5156 64.9138 92.0846 66.6398C93.7322 68.2874 95.4582 69.5427 97.2627 70.4057C99.3025 71.3471 101.538 71.8963 103.971 72.0532ZM93.3791 50.8705C95.8897 51.0274 97.9687 51.145 99.6163 51.2235C101.342 51.302 102.754 51.3804 103.853 51.4589C105.03 51.5373 105.971 51.5765 106.677 51.5765H109.619C111.581 51.5765 115.229 51.4589 120.564 51.2235C120.328 47.7715 119.583 45.1433 118.328 43.3388C117.151 41.5344 115.896 40.2006 114.562 39.3376C112.993 38.3962 111.267 37.847 109.384 37.6901C104.284 37.7685 100.479 38.8277 97.9687 40.8675C95.5367 42.9073 94.0068 46.2416 93.3791 50.8705ZM138.569 16.8604C140.923 17.0957 142.884 17.2919 144.453 17.4488C146.101 17.6057 147.434 17.7234 148.454 17.8018C149.631 17.8803 150.573 17.9195 151.279 17.9195C151.985 17.998 152.926 17.998 154.103 17.9195C155.123 17.841 156.457 17.7626 158.104 17.6841C159.752 17.5272 161.831 17.2919 164.341 16.978C163.792 17.7626 163.361 18.4687 163.047 19.0963C162.733 19.6455 162.458 20.1555 162.223 20.6262L161.517 22.0384C161.36 22.5091 161.203 22.9798 161.046 23.4506C160.889 23.8428 160.732 24.3136 160.576 24.8627C160.497 25.4119 160.419 26.0003 160.34 26.628H178.463L176.816 36.1602L160.222 35.2188C159.83 39.2199 159.556 42.3189 159.399 44.5156C159.242 46.7124 159.085 48.3207 158.928 49.3406L158.693 51.4589C158.457 54.4401 158.222 57.696 157.987 61.2265C157.751 64.6785 157.673 67.8951 157.751 70.8764C157.83 73.8577 158.104 76.3682 158.575 78.408C159.046 80.3694 159.869 81.3501 161.046 81.3501C162.223 81.3501 163.321 81.0363 164.341 80.4086C165.361 79.781 166.224 79.0357 166.93 78.1727C167.715 77.3097 168.303 76.4467 168.696 75.5837C169.088 74.6422 169.284 73.9361 169.284 73.4654C169.284 72.9947 169.166 72.4455 168.931 71.8178C168.539 70.641 167.833 69.1504 166.813 67.3459C169.088 67.8951 171.088 68.4443 172.814 68.9935C173.677 69.3073 174.462 69.6211 175.168 69.9349C175.953 70.2487 176.855 70.6018 177.875 70.9941C178.738 71.3863 179.836 71.8571 181.17 72.4063C182.504 72.9554 184.073 73.6223 185.877 74.4068C184.151 74.7207 182.896 75.2306 182.111 75.9367C181.641 76.2505 181.288 76.6036 181.052 76.9958C180.503 77.8588 179.875 79.0357 179.169 80.5263C178.463 81.9385 177.404 83.3507 175.992 84.7629C174.58 86.175 172.658 87.4303 170.225 88.5287C167.872 89.627 164.694 90.2547 160.693 90.4116C156.535 90.5685 153.358 89.8624 151.161 88.2933C149.043 86.7242 147.474 84.9198 146.454 82.8799C145.512 80.7617 144.963 78.6826 144.806 76.6428C144.649 74.603 144.532 73.23 144.453 72.5239C144.375 71.8178 144.375 70.0526 144.453 67.2282C144.532 64.4039 144.649 61.3049 144.806 57.9314C144.963 54.4794 145.12 51.1843 145.277 48.0461C145.434 44.8294 145.512 42.4758 145.512 40.9852C145.512 40.2006 145.551 39.3768 145.63 38.5138C145.63 37.8078 145.63 37.0624 145.63 36.2779C145.708 35.4149 145.748 34.5911 145.748 33.8066L128.684 33.6889L127.978 26.981L145.159 27.4517C145.002 26.5887 144.806 25.8042 144.571 25.0981C144.414 24.3136 144.257 23.6859 144.1 23.2152C143.865 22.666 143.629 22.1953 143.394 21.803C143.08 21.4107 142.727 20.9792 142.335 20.5085C141.943 20.1162 141.433 19.6063 140.805 18.9786C140.177 18.351 139.432 17.6449 138.569 16.8604ZM175.05 6.73972C178.032 7.44581 180.699 7.99499 183.053 8.38727C185.485 8.70108 187.525 8.93645 189.172 9.09336C191.134 9.32872 192.86 9.40718 194.35 9.32872C196.233 9.25027 198.587 8.97568 201.411 8.50495C204.236 8.03422 207.217 7.56349 210.355 7.09276C213.493 6.62204 216.592 6.22976 219.652 5.91594C222.712 5.60213 225.379 5.5629 227.654 5.79826C229.929 6.03363 232.322 6.58281 234.833 7.44581C237.343 8.23036 239.697 9.32872 241.894 10.7409C244.091 12.0746 245.973 13.7222 247.543 15.6835C249.19 17.6449 250.21 19.9201 250.602 22.5091C250.995 25.0196 250.759 27.7263 249.896 30.6292C249.033 33.4535 247.66 36.2387 245.777 38.9846C243.894 41.652 241.541 44.1234 238.716 46.3985C235.892 48.6737 232.754 50.5174 229.302 51.9296C226.556 52.9495 223.575 53.734 220.358 54.2832C217.612 54.754 214.395 55.0678 210.708 55.2247C207.099 55.3031 203.255 54.9109 199.175 54.0479C198.626 56.323 198.312 58.4413 198.234 60.4027C198.234 62.2856 198.312 63.9724 198.469 65.463C198.704 67.189 199.018 68.7581 199.411 70.1703C199.881 71.5825 200.47 73.23 201.176 75.1129C201.803 76.682 202.51 78.6042 203.294 80.8794C204.157 83.0761 205.177 85.5474 206.354 88.2933C204.942 88.2933 203.569 88.3325 202.235 88.411C200.901 88.411 199.685 88.4502 198.587 88.5287C197.332 88.6071 196.155 88.6856 195.056 88.764C193.801 88.8425 192.389 88.9994 190.82 89.2348C189.486 89.3917 187.799 89.627 185.759 89.9409C183.798 90.2547 181.562 90.647 179.052 91.1177C180.699 88.764 181.994 86.6065 182.935 84.6452C183.955 82.6054 184.7 80.8401 185.171 79.3495C185.72 77.6235 186.073 76.0544 186.23 74.6422C186.309 73.4654 186.309 71.3863 186.23 68.4051C186.23 65.4238 186.191 61.9718 186.113 58.0491C186.034 54.1263 185.916 50.0075 185.759 45.6924C185.603 41.3774 185.406 37.337 185.171 33.5712C184.936 29.7269 184.661 26.4318 184.347 23.6859C184.112 20.94 183.877 19.1356 183.641 18.2726C183.327 17.2526 182.778 16.1543 181.994 14.9775C181.366 13.9575 180.464 12.7807 179.287 11.447C178.189 10.0348 176.776 8.46572 175.05 6.73972ZM199.411 29.9231C199.332 30.7076 199.293 31.5314 199.293 32.3944C199.293 34.0419 199.411 36.1602 199.646 38.7492C200.195 40.0829 200.862 41.1813 201.647 42.0443C202.51 42.9073 203.412 43.5742 204.353 44.0449C205.373 44.5156 206.393 44.8294 207.413 44.9864C208.433 45.1433 209.453 45.2217 210.473 45.2217C212.826 45.1433 215.298 44.5941 217.887 43.5742C221.339 42.0835 223.771 39.9653 225.183 37.2193C226.595 34.4734 227.34 31.6491 227.419 28.7462C227.497 25.8434 226.987 23.176 225.889 20.7439C224.869 18.3118 223.614 16.6642 222.123 15.8012C220.868 15.252 219.26 15.0167 217.298 15.0951C215.572 15.1736 213.415 15.6051 210.826 16.3896C208.237 17.1742 205.059 18.5864 201.293 20.6262C200.901 22.0384 200.587 23.2936 200.352 24.392C200.117 25.4904 199.921 26.4711 199.764 27.3341C199.607 28.2755 199.489 29.1385 199.411 29.9231ZM257.781 43.3388C258.173 42.8681 258.408 42.0051 258.487 40.7498C258.644 39.4161 258.958 37.9254 259.428 36.2779C259.978 34.6303 260.88 32.9043 262.135 31.0999C263.39 29.2954 265.43 27.6087 268.255 26.0396C271 24.4705 273.668 23.529 276.257 23.2152C278.846 22.9014 281.317 23.0191 283.671 23.5682C286.025 24.1174 288.221 24.9804 290.261 26.1572C292.379 27.3341 294.301 28.6286 296.027 30.0407C297.204 30.9822 298.146 32.3552 298.852 34.1596C299.558 35.8856 300.107 37.847 300.499 40.0437C300.892 42.2404 301.166 44.5549 301.323 46.9869C301.559 49.3406 301.715 51.655 301.794 53.9302C301.872 56.1269 301.912 58.1667 301.912 60.0496C301.99 61.8541 302.147 63.3447 302.382 64.5216C302.696 66.2476 303.245 67.7382 304.03 68.9935C304.814 70.1703 305.677 71.1902 306.619 72.0532C307.56 72.8378 308.502 73.4654 309.443 73.9361C310.385 74.4068 311.208 74.7599 311.915 74.9953C312.385 75.2306 312.817 75.3875 313.209 75.466C313.994 75.7798 314.543 75.7798 314.857 75.466C314.386 76.5643 313.954 77.5058 313.562 78.2903C313.17 79.0749 312.856 79.7418 312.621 80.2909C312.307 80.9186 312.032 81.4285 311.797 81.8208C311.561 82.2915 311.287 82.723 310.973 83.1153C310.738 83.5076 310.424 83.9391 310.032 84.4098C309.639 84.8805 309.247 85.3905 308.855 85.9397C307.835 85.5474 306.854 85.0767 305.913 84.5275C305.05 83.9783 304.265 83.4684 303.559 82.9976C302.696 82.4484 301.912 81.8993 301.205 81.3501C300.499 80.8009 299.833 80.1733 299.205 79.4672C298.656 78.8395 298.067 78.1727 297.44 77.4666C296.89 76.7605 296.42 75.9759 296.027 75.1129C295.557 76.1328 294.419 77.5843 292.615 79.4672C290.889 81.3501 288.614 83.0761 285.789 84.6452C282.965 86.1358 279.67 87.195 275.904 87.8226C272.216 88.4502 268.137 88.0187 263.665 86.5281C261.704 85.9004 259.86 84.9982 258.134 83.8214C256.408 82.5661 254.917 81.0755 253.662 79.3495C252.485 77.6235 251.622 75.6621 251.073 73.4654C250.602 71.1902 250.641 68.6797 251.191 65.9337C251.74 63.1878 252.721 60.8734 254.133 58.9905C255.545 57.1076 257.232 55.5777 259.193 54.4009C261.154 53.2241 263.351 52.3219 265.783 51.6942C268.215 51.0666 270.726 50.6351 273.315 50.3997C275.355 50.3213 277.395 50.439 279.434 50.7528C281.16 51.0666 282.965 51.655 284.848 52.518C286.731 53.3025 288.339 54.5186 289.673 56.1661C289.594 52.008 289.437 48.7129 289.202 46.2809C289.045 43.7703 288.888 41.8482 288.731 40.5144C288.417 38.9453 288.143 37.847 287.907 37.2193C287.515 36.6702 287.084 36.0425 286.613 35.3364C286.221 34.6303 285.711 34.0027 285.083 33.4535C284.455 32.8259 283.671 32.3159 282.729 31.9237C281.788 31.5314 280.69 31.3745 279.434 31.4529C278.101 31.5314 277.041 31.8844 276.257 32.5121C275.472 33.1397 274.845 33.885 274.374 34.748C273.982 35.5326 273.746 36.3956 273.668 37.337C273.589 38.2785 273.629 39.1023 273.786 39.8083C273.943 40.2791 274.178 40.789 274.492 41.3382C274.806 41.8089 275.237 42.3189 275.786 42.8681C276.335 43.4173 277.081 43.888 278.022 44.2803C276.218 44.5156 274.609 44.7118 273.197 44.8687C271.785 44.9471 270.569 45.0648 269.549 45.2217C268.372 45.3786 267.352 45.4963 266.489 45.5748C265.626 45.6532 264.606 45.8101 263.43 46.0455C262.41 46.2024 261.154 46.3985 259.664 46.6339C258.173 46.8693 256.447 47.1831 254.486 47.5754C254.956 47.0262 255.388 46.5162 255.78 46.0455C256.173 45.4963 256.526 45.0256 256.839 44.6333C257.153 44.1626 257.467 43.7311 257.781 43.3388ZM275.433 57.343C274.021 57.4214 272.609 57.7745 271.197 58.4021C269.784 58.9513 268.529 59.7751 267.431 60.8734C266.332 61.8933 265.391 63.1094 264.606 64.5216C263.9 65.8553 263.547 67.3459 263.547 68.9935C263.547 70.641 263.94 72.0924 264.724 73.3477C265.587 74.5245 266.685 75.5052 268.019 76.2898C269.431 77.0743 270.922 77.545 272.491 77.7019C274.139 77.8588 275.747 77.7019 277.316 77.2312C278.807 76.682 280.219 75.819 281.553 74.6422C282.886 73.3869 284.024 72.0532 284.965 70.641C285.907 69.1504 286.574 67.699 286.966 66.2868C287.358 64.7962 287.397 63.5801 287.084 62.6386C286.456 60.5988 285.044 59.1866 282.847 58.4021C280.65 57.5391 278.179 57.1861 275.433 57.343ZM316.386 94.2951C317.171 93.1183 317.799 92.0199 318.269 91C318.74 89.9801 319.132 89.1171 319.446 88.411C319.76 87.548 319.995 86.7634 320.152 86.0574C320.231 85.5866 320.27 84.2137 320.27 81.9385C320.27 79.6633 320.192 76.7997 320.035 73.3477C319.956 69.8957 319.838 66.0122 319.682 61.6972C319.603 57.3822 319.446 52.9887 319.211 48.5168C319.054 44.0449 318.858 39.6907 318.622 35.4541C318.466 31.2176 318.309 27.4125 318.152 24.039C317.995 20.587 317.838 17.7626 317.681 15.5659C317.524 13.3691 317.406 12.1139 317.328 11.8C317.171 11.3293 316.896 10.8586 316.504 10.3879C315.72 9.4464 314.386 8.54417 312.503 7.68117C316.504 6.66126 319.564 5.83749 321.682 5.20985C322.937 4.89603 324.036 4.58222 324.977 4.2684C325.84 3.95458 326.703 3.64076 327.566 3.32694C328.272 3.01312 329.057 2.66008 329.92 2.2678C330.783 1.79708 331.567 1.28712 332.274 0.737938C331.881 3.01312 331.567 5.20985 331.332 7.32813C331.097 9.4464 330.901 11.4078 330.744 13.2122C330.587 15.252 330.508 17.2134 330.508 19.0963C330.116 22.9406 329.881 27.1379 329.802 31.6883C329.802 36.1602 329.841 40.7106 329.92 45.3394C329.998 49.9682 330.155 54.4794 330.391 58.8728C330.626 63.2663 330.861 67.2675 331.097 70.8764C331.411 74.4068 331.685 77.4273 331.92 79.9379C332.234 82.37 332.47 83.9391 332.627 84.6452C332.94 85.822 333.254 86.9596 333.568 88.058C333.882 88.9994 334.235 89.9801 334.627 91C335.019 92.0984 335.49 92.9614 336.039 93.589H324.624C323.604 93.589 322.624 93.6282 321.682 93.7067C320.819 93.7851 319.917 93.8636 318.975 93.942C318.034 94.0205 317.171 94.1382 316.386 94.2951Z" fill="#A3651B"/>
</svg>
